<?xml version="1.0" encoding="UTF-8" standalone="no"?>
<svg
   xmlns:dc="http://purl.org/dc/elements/1.1/"
   xmlns:cc="http://creativecommons.org/ns#"
   xmlns:rdf="http://www.w3.org/1999/02/22-rdf-syntax-ns#"
   xmlns:svg="http://www.w3.org/2000/svg"
   xmlns="http://www.w3.org/2000/svg"
   xmlns:sodipodi="http://sodipodi.sourceforge.net/DTD/sodipodi-0.dtd"
   xmlns:inkscape="http://www.inkscape.org/namespaces/inkscape"
   version="1.1"
   width="136"
   height="100"
   id="svg3031"
   inkscape:version="0.48.4 r9939"
   sodipodi:docname="logo.svg">
  <metadata
     id="metadata3075">
    <rdf:RDF>
      <cc:Work
         rdf:about="">
        <dc:format>image/svg+xml</dc:format>
        <dc:type
           rdf:resource="http://purl.org/dc/dcmitype/StillImage" />
        <dc:title></dc:title>
      </cc:Work>
    </rdf:RDF>
  </metadata>
  <defs
     id="defs3073" />
  <sodipodi:namedview
     pagecolor="#ffffff"
     bordercolor="#666666"
     borderopacity="1"
     objecttolerance="10"
     gridtolerance="10"
     guidetolerance="10"
     inkscape:pageopacity="0"
     inkscape:pageshadow="2"
     inkscape:window-width="1920"
     inkscape:window-height="1018"
     id="namedview3071"
     showgrid="false"
     inkscape:zoom="0.944"
     inkscape:cx="125"
     inkscape:cy="123.49038"
     inkscape:window-x="-8"
     inkscape:window-y="-8"
     inkscape:window-maximized="1"
     inkscape:current-layer="svg3031" />
  <path
     style="fill:#366050;fill-rule:evenodd"
     inkscape:connector-curvature="0"
     id="path3035"
     d="M 4.3800622,26.527307 H 15.041165 c 5.527979,0 8.335842,-2.19364 8.335842,-6.31769 0,-2.93948 -1.491677,-4.6944 -4.518904,-5.30862 2.193642,-0.4826 3.465955,-2.19364 3.465955,-4.65052 0,-3.6853202 -2.588498,-6.0983202 -7.282893,-6.0983202 H 4.3800622 V 26.527307 l 0,0 z M 11.926193,9.4607668 h 1.052948 c 1.316186,0 2.018151,0.5703502 2.018151,1.5794202 0,1.00908 -0.701965,1.57943 -2.018151,1.57943 H 11.926193 V 9.4607668 l 0,0 z m 0,7.9409902 h 1.360058 c 1.667168,0 2.500753,0.65809 2.500753,1.79878 0,1.1407 -0.833585,1.79879 -2.500753,1.79879 h -1.360058 v -3.59757 l 0,0 z" />
  <path
     style="fill:#366050;fill-rule:evenodd"
     inkscape:connector-curvature="0"
     id="path3037"
     d="m 28.948858,26.439557 h 7.98486 v -7.32676 l 3.948556,7.37064 h 9.125553 l -6.098326,-9.12556 c 2.632371,-0.30711 4.343412,-2.54462 4.343412,-5.70347 0,-4.7821402 -3.114973,-7.5022502 -9.125552,-7.5022502 H 28.948858 V 26.439557 l 0,0 z M 36.889845,9.8994968 h 1.272312 c 1.579423,0 2.413007,0.8335802 2.413007,2.1936402 0,1.36006 -0.833584,2.14977 -2.413007,2.14977 H 36.889845 V 9.8994968 l 0,0 z" />
  <path
     style="fill:#366050;fill-rule:evenodd"
     inkscape:connector-curvature="0"
     id="path3039"
     d="m 52.903436,26.439557 h 8.730697 l 0.701966,-2.80786 h 6.142198 l 0.745839,2.80786 h 8.730698 L 70.05772,4.0644068 h -9.037807 l -8.116477,22.3751502 0,0 z m 10.792721,-8.11647 0.701965,-2.54463 c 0.307111,-1.18457 0.789711,-2.76399 0.92133,-4.91376 h 0.175492 c 0.131618,2.14977 0.614219,3.72919 0.921329,4.91376 l 0.701966,2.54463 h -3.422082 l 0,0 z" />
  <path
     style="fill:#366050;fill-rule:evenodd"
     inkscape:connector-curvature="0"
     id="path3041"
     d="m 81.552407,16.217187 c 0,2.67624 0.219362,4.82601 1.27231,6.53706 1.711041,2.67624 4.957631,4.34341 8.993938,4.34341 4.036299,0 7.282893,-1.6233 8.993935,-4.34341 1.05295,-1.71105 1.31618,-3.81694 1.31618,-6.53706 V 4.0644068 H 94.056166 V 16.261057 c 0,2.36914 -0.394854,3.7292 -2.237511,3.7292 -1.886534,0 -2.237519,-1.36006 -2.237519,-3.7292 V 4.0644068 H 81.508538 V 16.217187 l 0.04389,0 z" />
  <path
     style="fill:#366050;fill-rule:evenodd"
     inkscape:connector-curvature="0"
     id="path3043"
     d="m 108.92907,26.395687 h 7.72162 v -8.02873 c 0,-0.92133 -0.0439,-2.1059 -0.26324,-3.50983 l 6.84417,11.58243 h 7.89711 V 4.1082768 h -7.72162 v 8.1164802 c 0,0.9652 0.0439,2.14977 0.26324,3.5537 L 116.78231,4.1082768 h -7.85324 V 26.395687 l 0,0 z" />
  <path
     style="fill:#366050;fill-rule:evenodd"
     inkscape:connector-curvature="0"
     id="path3045"
     d="m 4.1168251,44.076447 v 22.15579 h 2.369134 v -22.15579 h -2.369134 l 0,0 z m 8.9061889,22.19966 h 2.544626 v -15.57486 l 13.732201,16.45232 v -23.12099 h -2.193642 v 16.58394 L 13.023014,43.462227 v 22.81388 l 0,0 z m 20.269257,-19.91827 h 5.264742 v 19.8744 h 2.369134 v -19.8744 h 5.791216 v -2.28139 H 33.292271 v 2.28139 l 0,0 z m 17.593014,-2.28139 v 22.19966 h 11.143703 v -2.413 h -8.818443 v -8.51134 h 8.862316 v -2.45688 h -8.642952 v -6.53705 h 8.642952 v -2.32526 H 50.885285 l 0,0.0439 z m 17.198157,0 v 22.19966 h 2.413006 v -9.87139 h 0.833585 l 6.712545,9.87139 h 3.114975 l -7.326768,-10.09075 c 1.53555,0 2.105897,-0.26324 2.983354,-0.74584 0.877457,-0.4826 1.535548,-1.22844 2.018148,-2.19364 0.438732,-0.96521 0.701971,-1.75492 0.701971,-3.02723 0,-1.49168 -0.350985,-2.76399 -1.052948,-3.81694 -0.658095,-1.05295 -1.535553,-1.75491 -2.632374,-2.06202 -0.701965,-0.17549 -2.062024,-0.30711 -4.080175,-0.30711 h -3.685319 l 0,0.0439 z m 2.413006,2.28139 h 2.062024 c 1.22844,0 2.14977,0.17549 2.720117,0.43873 0.526475,0.26323 0.965203,0.74584 1.316186,1.36006 0.350982,0.65809 0.482601,1.36005 0.482601,2.10589 0,0.78971 -0.131619,1.27232 -0.482601,1.93041 -0.350983,0.61422 -0.789711,1.09682 -1.360058,1.40393 -0.570347,0.30711 -1.491677,0.43873 -2.720117,0.43873 h -2.018152 v -7.67775 l 0,0 z m 61.114882,0.74584 v -2.45688 c -1.53555,-0.74584 -3.24659,-1.09682 -5.08925,-1.09682 -3.20272,0 -5.83509,1.09682 -7.98486,3.24659 -2.14977,2.19364 -3.20272,4.86988 -3.20272,8.02873 0,3.02723 0.87746,5.57185 2.63238,7.72162 2.06202,2.50075 4.95763,3.77307 8.59907,3.77307 1.84267,0 3.50983,-0.35099 5.04538,-1.05295 v -2.41301 c -1.4478,0.92133 -3.11497,1.40393 -4.95763,1.40393 -2.63237,0 -4.86989,-0.92133 -6.58093,-2.67624 -1.75491,-1.75492 -2.63237,-3.94856 -2.63237,-6.6248 0,-1.75492 0.39485,-3.29047 1.18457,-4.73827 0.74584,-1.40393 1.84266,-2.50075 3.29046,-3.33434 1.44781,-0.83358 2.98336,-1.27231 4.60665,-1.27231 1.53555,0 2.93948,0.30711 4.21179,0.92133 0.30711,0.17549 0.57035,0.35098 0.87746,0.57035 l 0,0 z m -48.786613,-0.74584 h 5.264747 v 19.8744 h 2.325258 v -19.8744 h 5.791217 v -2.28139 H 82.824717 v 2.28139 l 0,0 z m 17.285903,-2.28139 v 22.19966 h 11.14371 v -2.413 h -8.81844 v -8.51134 h 8.86231 v -2.45688 h -8.64295 v -6.53705 h 8.64295 v -2.32526 h -11.18758 l 0,0.0439 z" />
  <polygon
     style="fill:#ffffff;fill-rule:evenodd"
     id="polygon3047"
     points="296,78 296,72.8 296,72.8 5.9,72.8 5.9,78 "
     transform="matrix(0.43872851,0,0,0.43872851,1.4405812,2.0023868)" />
  <rect
     id="rect3049"
     height="24.174818"
     width="128.34607"
     y="73.251007"
     x="3.3946779" />
  <path
     style="fill:#ffffff"
     inkscape:connector-curvature="0"
     id="path3051"
     d="m 20.876254,85.185307 v 0.35099 c 0,1.9304 -0.350982,3.15884 -1.272312,4.29954 -1.22844,1.53554 -3.202719,2.45688 -5.22087,2.45688 -3.860811,0 -7.0196559,-3.20272 -7.0196559,-7.06354 0,-3.94855 3.2027179,-7.1074 7.2390199,-7.1074 2.237516,0 3.948557,0.92133 5.703471,2.98336 l -1.140694,1.00907 c -1.316186,-1.75491 -2.76399,-2.5885 -4.562777,-2.5885 -3.202718,0 -5.7034705,2.50076 -5.7034705,5.70347 0,3.07111 2.5446255,5.61573 5.5718525,5.61573 1.623295,0 3.378209,-0.96521 4.211794,-2.32526 0.350982,-0.57035 0.482601,-1.09683 0.570347,-1.9304 h -4.080175 v -1.40394 h 5.70347 z" />
  <path
     style="fill:#ffffff"
     inkscape:connector-curvature="0"
     id="path3053"
     d="m 25.000302,79.788947 v 4.08018 h 5.396361 v 1.40393 h -5.396361 v 5.35248 h 5.527979 v 1.40394 h -7.063528 v -13.68833 h 7.107401 v 1.40393 h -5.571852 z" />
  <path
     style="fill:#ffffff"
     inkscape:connector-curvature="0"
     id="path3055"
     d="m 46.892855,85.229177 c 0,3.86082 -3.246591,7.10741 -7.107402,7.10741 -3.948556,0 -7.151275,-3.15885 -7.151275,-7.06353 0,-3.90468 3.246591,-7.1074 7.151275,-7.1074 3.860811,-0.0439 7.107402,3.15884 7.107402,7.06352 z m -12.723127,0 c 0,3.11498 2.500752,5.61573 5.571852,5.61573 3.0711,0 5.571852,-2.54462 5.571852,-5.61573 0,-3.15884 -2.500752,-5.65959 -5.571852,-5.65959 -3.0711,0 -5.571852,2.50075 -5.571852,5.65959 z" />
  <path
     style="fill:#ffffff"
     inkscape:connector-curvature="0"
     id="path3057"
     d="m 52.245343,92.073347 h -1.53555 v -12.2844 h -3.290464 v -1.40393 h 8.16035 v 1.40393 h -3.334336 v 12.2844 z" />
  <path
     style="fill:#ffffff"
     inkscape:connector-curvature="0"
     id="path3059"
     d="m 66.153037,83.956867 v -5.57185 h 1.535549 v 13.68833 h -1.535549 v -6.71254 h -6.975784 v 6.71254 h -1.53555 v -13.68833 h 1.53555 v 5.57185 h 6.975784 z" />
  <path
     style="fill:#ffffff"
     inkscape:connector-curvature="0"
     id="path3061"
     d="m 72.953328,79.788947 v 4.08018 h 5.396359 v 1.40393 h -5.396359 v 5.35248 h 5.527982 v 1.40394 h -7.107404 v -13.68833 h 7.107404 v 1.40393 h -5.527982 z" />
  <path
     style="fill:#ffffff"
     inkscape:connector-curvature="0"
     id="path3063"
     d="m 89.230158,92.073347 h -1.886534 l -4.124045,-6.01058 h -0.394862 v 6.01058 h -1.535549 v -13.68833 h 2.237519 c 1.579418,0 2.500751,0.21937 3.29046,0.74584 0.921332,0.65809 1.535548,1.79878 1.535548,3.02722 0,2.14978 -1.316179,3.59758 -3.465952,3.81694 l 4.343415,6.09833 z m -5.396362,-7.37064 c 1.97428,0 3.027228,-0.87745 3.027228,-2.5885 0,-1.53555 -1.052948,-2.36913 -3.071098,-2.36913 h -0.921332 v 4.91376 h 0.965202 z" />
  <path
     style="fill:#ffffff"
     inkscape:connector-curvature="0"
     id="path3065"
     d="m 93.354204,77.595307 5.264739,11.58243 5.396367,-11.58243 2.10589,14.47804 h -1.57941 l -1.27232,-9.52041 -4.650527,10.09075 -4.606646,-10.09075 -1.360056,9.52041 h -1.579426 l 2.281389,-14.47804 z" />
  <path
     style="fill:#ffffff"
     inkscape:connector-curvature="0"
     id="path3067"
     d="m 110.94722,88.168657 -1.6233,3.86082 h -1.66717 l 6.3177,-14.34643 6.14219,14.34643 h -1.66716 l -1.6233,-3.86082 h -5.87896 z m 2.98335,-6.88803 -2.32526,5.4841 h 4.60665 l -2.28139,-5.4841 z" />
  <path
     style="fill:#ffffff"
     inkscape:connector-curvature="0"
     id="path3069"
     d="m 123.5826,90.625537 h 3.77307 v 1.40394 h -5.30862 v -13.68833 h 1.53555 v 12.28439 z" />
</svg>
